<?xml version="1.0" encoding="UTF-8" standalone="no"?>
<svg
   xmlns:dc="http://purl.org/dc/elements/1.1/"
   xmlns:cc="http://creativecommons.org/ns#"
   xmlns:rdf="http://www.w3.org/1999/02/22-rdf-syntax-ns#"
   xmlns:svg="http://www.w3.org/2000/svg"
   xmlns="http://www.w3.org/2000/svg"
   xmlns:sodipodi="http://sodipodi.sourceforge.net/DTD/sodipodi-0.dtd"
   xmlns:inkscape="http://www.inkscape.org/namespaces/inkscape"
   version="1.1"
   width="240px"
   height="240px"
   viewBox="0 0 240 240"
   id="svg4"
   sodipodi:docname="pig.svg"
   inkscape:version="0.92.4 (5da689c313, 2019-01-14)">
  <metadata
     id="metadata10">
    <rdf:RDF>
      <cc:Work
         rdf:about="">
        <dc:format>image/svg+xml</dc:format>
        <dc:type
           rdf:resource="http://purl.org/dc/dcmitype/StillImage" />
        <dc:title></dc:title>
      </cc:Work>
    </rdf:RDF>
  </metadata>
  <defs
     id="defs8" />
  <sodipodi:namedview
     pagecolor="#ffffff"
     bordercolor="#666666"
     borderopacity="1"
     objecttolerance="10"
     gridtolerance="10"
     guidetolerance="10"
     inkscape:pageopacity="0"
     inkscape:pageshadow="2"
     inkscape:window-width="1296"
     inkscape:window-height="704"
     id="namedview6"
     showgrid="false"
     inkscape:zoom="0.98333333"
     inkscape:cx="112.60526"
     inkscape:cy="153.18791"
     inkscape:window-x="70"
     inkscape:window-y="27"
     inkscape:window-maximized="1"
     inkscape:current-layer="svg4" />
  <g
     id="g942"
     transform="matrix(0.78023835,0,0,0.78023835,-149.09561,29.724831)">
    <circle
       r="57.457626"
       cy="156.1017"
       cx="344.23727"
       id="path817"
       style="opacity:1;fill:#ff8eac;fill-opacity:1;fill-rule:evenodd;stroke:#ce7999;stroke-width:5.4000001;stroke-linecap:round;stroke-linejoin:round;stroke-miterlimit:4;stroke-dasharray:none;stroke-opacity:1;paint-order:markers stroke fill" />
    <ellipse
       ry="49.897488"
       rx="45.762711"
       style="opacity:1;fill:#ffb7d2;fill-opacity:1;fill-rule:evenodd;stroke:none;stroke-width:4.49098206;stroke-linecap:round;stroke-linejoin:round;stroke-miterlimit:4;stroke-dasharray:none;stroke-opacity:1;paint-order:markers stroke fill"
       id="circle819"
       cx="344.23727"
       cy="148.54156" />
    <path
       d="m 344.95779,175.9008 c 0.52738,0.30449 -0.15024,0.86112 -0.50607,0.87654 -0.96426,0.0418 -1.42292,-1.08475 -1.247,-1.88868 0.31468,-1.43804 1.97102,-2.04044 3.27129,-1.61747 1.9082,0.62072 2.67203,2.86778 1.98794,4.6539 -0.91178,2.38061 -3.76807,3.30936 -6.03651,2.35841 -2.8546,-1.19668 -3.94962,-4.67 -2.72888,-7.41912 0.10601,-0.23874 0.22752,-0.47057 0.36333,-0.6937"
       sodipodi:t0="0"
       sodipodi:argument="-18.325956"
       sodipodi:radius="6.154973"
       sodipodi:revolution="1.5202867"
       sodipodi:expansion="1"
       sodipodi:cy="175.9008"
       sodipodi:cx="344.95779"
       id="path823"
       style="fill:none;fill-rule:evenodd;stroke:#ce7999;stroke-width:1.78100002;stroke-miterlimit:4;stroke-dasharray:none;stroke-opacity:1"
       sodipodi:type="spiral" />
    <circle
       r="38.111858"
       cy="93.305305"
       cx="342.64716"
       id="path825"
       style="opacity:1;fill:#ff8eac;fill-opacity:1;fill-rule:evenodd;stroke:#ce7999;stroke-width:6.88100004;stroke-linecap:round;stroke-linejoin:round;stroke-miterlimit:4;stroke-dasharray:none;stroke-opacity:1;paint-order:markers stroke fill" />
    <ellipse
       ry="12.584104"
       rx="15.820016"
       cy="113.43987"
       cx="342.2876"
       id="path829"
       style="opacity:1;fill:#ffb7d2;fill-opacity:1;fill-rule:evenodd;stroke:#ce7999;stroke-width:6.88100004;stroke-linecap:round;stroke-linejoin:round;stroke-miterlimit:4;stroke-dasharray:none;stroke-opacity:1;paint-order:markers stroke fill" />
    <path
       inkscape:connector-curvature="0"
       id="path833"
       d="m 336.53489,112.13137 v 6.572"
       style="fill:none;stroke:#ce7999;stroke-width:2.44356513;stroke-linecap:round;stroke-linejoin:miter;stroke-miterlimit:4;stroke-dasharray:none;stroke-opacity:1" />
    <path
       style="fill:none;stroke:#ce7999;stroke-width:2.44356513;stroke-linecap:round;stroke-linejoin:miter;stroke-miterlimit:4;stroke-dasharray:none;stroke-opacity:1"
       d="m 346.60217,112.13137 v 6.572"
       id="path835"
       inkscape:connector-curvature="0" />
    <g
       transform="matrix(1.1376313,0,0,1.1376313,-45.430099,-11.293536)"
       id="g917">
      <path
         style="fill:#ffffff;stroke:#ce7999;stroke-width:0.80183274px;stroke-linecap:butt;stroke-linejoin:miter;stroke-opacity:1"
         d="m 321.25029,91.321695 h 14.12649 c 0,0 0.15625,-10.378894 -1.67943,-14.646669 -2.3826,-5.539309 -9.77558,-5.000434 -11.31393,0.640552 -0.81385,2.98431 -1.13313,7.432563 -1.13313,14.006117 z"
         id="path837"
         inkscape:connector-curvature="0"
         sodipodi:nodetypes="ccssc" />
      <ellipse
         style="opacity:1;fill:#000000;fill-opacity:1;fill-rule:evenodd;stroke:none;stroke-width:3.75909972;stroke-linecap:round;stroke-linejoin:round;stroke-miterlimit:4;stroke-dasharray:none;stroke-opacity:1;paint-order:markers stroke fill"
         id="path841"
         cx="330.19791"
         cy="85.260468"
         rx="3.8201745"
         ry="5.0785847" />
    </g>
    <g
       transform="matrix(1.1376313,0,0,1.1376313,-47.972472,-11.293536)"
       id="g913">
      <path
         sodipodi:nodetypes="ccssc"
         inkscape:connector-curvature="0"
         id="path847"
         d="m 361.08762,91.321695 h -14.12649 c 0,0 -0.15625,-10.378894 1.67943,-14.646669 2.3826,-5.539309 9.77558,-5.000434 11.31393,0.640552 0.81385,2.98431 1.13313,7.432563 1.13313,14.006117 z"
         style="fill:#ffffff;stroke:#ce7999;stroke-width:0.80183274px;stroke-linecap:butt;stroke-linejoin:miter;stroke-opacity:1" />
      <ellipse
         ry="5.0785847"
         rx="3.8201745"
         cy="85.260468"
         cx="-352.14001"
         id="ellipse849"
         style="opacity:1;fill:#000000;fill-opacity:1;fill-rule:evenodd;stroke:none;stroke-width:3.75909972;stroke-linecap:round;stroke-linejoin:round;stroke-miterlimit:4;stroke-dasharray:none;stroke-opacity:1;paint-order:markers stroke fill"
         transform="scale(-1,1)" />
    </g>
    <path
       inkscape:connector-curvature="0"
       id="path853"
       d="m 317.29919,61.665273 c 0,0 -7.01115,-16.898654 -12.76388,-3.775232 -5.75273,13.123423 -5.21341,16.179562 -8.98864,23.190706 -3.77524,7.011143 14.74137,5.213414 14.74137,5.213414 0,0 5.93251,-3.775231 2.15728,-15.640243 -3.77523,-11.865012 2.33705,-4.674096 2.33705,-4.674096 z"
       style="fill:#ffb7d2;fill-opacity:1;stroke:#ce7999;stroke-width:2.5999999;stroke-linecap:butt;stroke-linejoin:miter;stroke-miterlimit:4;stroke-dasharray:none;stroke-opacity:1" />
    <path
       style="fill:#ffb7d2;fill-opacity:1;stroke:#ce7999;stroke-width:2.5999999;stroke-linecap:butt;stroke-linejoin:miter;stroke-miterlimit:4;stroke-dasharray:none;stroke-opacity:1"
       d="m 368.91719,61.665273 c 0,0 7.01115,-16.898654 12.76388,-3.775232 5.75273,13.123423 5.21341,16.179562 8.98864,23.190706 3.77524,7.011143 -14.74137,5.213414 -14.74137,5.213414 0,0 -5.93251,-3.775231 -2.15728,-15.640243 3.77523,-11.865012 -2.33705,-4.674096 -2.33705,-4.674096 z"
       id="path855"
       inkscape:connector-curvature="0" />
    <path
       sodipodi:nodetypes="ccscc"
       inkscape:connector-curvature="0"
       id="path859"
       d="m 310.66398,217.70329 h 19.39196 c 0,0 1.29934,-15.52968 -3.70497,-19.94376 -6.19582,-5.46504 -12.69147,-0.0789 -12.69147,-0.0789 0,0 -4.09912,2.28606 -2.99552,20.02259 z"
       style="fill:#2b1100;fill-opacity:1;stroke:#160000;stroke-width:2.44000006;stroke-linecap:butt;stroke-linejoin:miter;stroke-miterlimit:4;stroke-dasharray:none;stroke-opacity:1" />
    <path
       style="fill:#2b1100;fill-opacity:1;stroke:#160000;stroke-width:2.44000006;stroke-linecap:butt;stroke-linejoin:miter;stroke-miterlimit:4;stroke-dasharray:none;stroke-opacity:1"
       d="m 356.1593,217.70329 h 19.39196 c 0,0 1.29934,-15.52968 -3.70497,-19.94376 -6.19582,-5.46504 -12.69147,-0.0789 -12.69147,-0.0789 0,0 -4.09912,2.28606 -2.99552,20.02259 z"
       id="path881"
       inkscape:connector-curvature="0"
       sodipodi:nodetypes="ccscc" />
    <path
       sodipodi:nodetypes="cccc"
       inkscape:connector-curvature="0"
       id="path863"
       d="m 318.47714,218.81161 2.05252,-10.2857 1.86569,10.27799 z"
       style="fill:#120000;fill-opacity:1;stroke:none;stroke-width:1px;stroke-linecap:butt;stroke-linejoin:miter;stroke-opacity:1" />
    <path
       style="fill:#120000;fill-opacity:1;stroke:none;stroke-width:1px;stroke-linecap:butt;stroke-linejoin:miter;stroke-opacity:1"
       d="m 363.97246,218.81161 2.05252,-10.2857 1.86569,10.27799 z"
       id="path883"
       inkscape:connector-curvature="0"
       sodipodi:nodetypes="cccc" />
  </g>
</svg>
