<?xml version="1.0" encoding="UTF-8" standalone="no"?>
<svg
   xmlns:dc="http://purl.org/dc/elements/1.1/"
   xmlns:cc="http://creativecommons.org/ns#"
   xmlns:rdf="http://www.w3.org/1999/02/22-rdf-syntax-ns#"
   xmlns:svg="http://www.w3.org/2000/svg"
   xmlns="http://www.w3.org/2000/svg"
   xmlns:sodipodi="http://sodipodi.sourceforge.net/DTD/sodipodi-0.dtd"
   xmlns:inkscape="http://www.inkscape.org/namespaces/inkscape"
   version="1.1"
   width="240px"
   height="240px"
   viewBox="0 0 240 240"
   id="svg4"
   sodipodi:docname="wood.svg"
   inkscape:version="0.92.4 (5da689c313, 2019-01-14)">
  <metadata
     id="metadata10">
    <rdf:RDF>
      <cc:Work
         rdf:about="">
        <dc:format>image/svg+xml</dc:format>
        <dc:type
           rdf:resource="http://purl.org/dc/dcmitype/StillImage" />
      </cc:Work>
    </rdf:RDF>
  </metadata>
  <defs
     id="defs8" />
  <sodipodi:namedview
     pagecolor="#ffffff"
     bordercolor="#666666"
     borderopacity="1"
     objecttolerance="10"
     gridtolerance="10"
     guidetolerance="10"
     inkscape:pageopacity="0"
     inkscape:pageshadow="2"
     inkscape:window-width="1296"
     inkscape:window-height="704"
     id="namedview6"
     showgrid="false"
     inkscape:zoom="1.3906433"
     inkscape:cx="87.985596"
     inkscape:cy="175.77634"
     inkscape:window-x="70"
     inkscape:window-y="27"
     inkscape:window-maximized="1"
     inkscape:current-layer="svg4" />
  <g
     id="g854">
    <path
       inkscape:connector-curvature="0"
       id="path817"
       d="m 8.6290997,136.63058 c 0,0 -1.0786375,-6.83137 1.7977293,-12.94365 2.876366,-6.11228 -4.6740959,-14.92115 -4.6740959,-14.92115 0,0 2.8763666,-12.224563 -0.5393187,-17.437977 C 1.7977291,86.114388 47.999367,89.88962 47.999367,89.88962 c 0,0 14.921152,2.157274 21.572749,-1.078638 6.651598,-3.235912 32.538894,3.235912 32.538894,3.235912 0,0 90.60085,7.614123 130.26187,-4.589267 0,0 5.84746,7.118644 1.52543,16.525423 -4.32204,9.40678 1.52542,8.38983 1.52542,8.38983 0,0 -6.35593,11.94915 -2.54237,15 3.81356,3.05085 4.32203,13.98305 -5.08475,22.37288 0,0 -103.47458,-5.84746 -115.67797,0.76271 -12.203386,6.61017 -28.983047,-5.59322 -28.983047,-5.59322 0,0 -62.542373,3.81356 -66.864407,3.55933 -4.322033,-0.25424 -12.2333256,-7.92528 -7.6420863,-11.844 z"
       style="fill:#3f2717;stroke:none;stroke-width:1px;stroke-linecap:butt;stroke-linejoin:miter;stroke-opacity:1;fill-opacity:1" />
    <path
       inkscape:connector-curvature="0"
       id="path819"
       d="m 10.042373,93.432203 c 0,0 47.415254,1.652543 56.186441,-0.508474 8.771186,-2.161017 4.194915,2.542372 4.194915,2.542372 0,0 152.028851,0.450969 156.989001,-3.778752 0,0 5.93251,7.550462 3.41569,9.168421 0,0 -4.49433,-5.932509 -44.94323,-1.617959 -40.44891,4.314549 -117.032165,1.078639 -117.032165,1.078639 0,0 -40.628678,-4.494324 -55.909375,-1.258412 z"
       style="fill:#583815;fill-opacity:1;stroke:none;stroke-width:1px;stroke-linecap:butt;stroke-linejoin:miter;stroke-opacity:1" />
    <path
       inkscape:connector-curvature="0"
       id="path821"
       d="m 13.303195,138.06876 c 0,0 5.213415,3.77523 4.31455,6.83137 -0.898864,3.05614 66.336204,-3.05614 66.336204,-3.05614 0,0 28.673171,8.91872 62.232491,3.83398 33.55932,-5.08475 80.08475,-1.77967 80.08475,-1.77967 0,0 5.33898,-5.59322 4.06779,-9.91525 0,0 -50.33898,6.86441 -83.13559,4.32203 -32.79661,-2.54237 -79.067797,-3.55932 -87.966102,-0.25423 -8.898305,3.30508 -45.934093,0.0179 -45.934093,0.0179 z"
       style="fill:#583815;fill-opacity:1;stroke:none;stroke-width:1px;stroke-linecap:butt;stroke-linejoin:miter;stroke-opacity:1" />
    <path
       inkscape:connector-curvature="0"
       id="path823"
       d="m 10.786375,103.19281 c 0,0 0.898864,-5.932501 53.7521,0.17978 52.853235,6.11228 126.200585,-1.9775 126.200585,-1.9775 0,0 26.96593,-3.775235 37.57254,0.35954 l 2.15727,5.93251 c 0,0 -24.44911,-6.6516 -41.70731,-2.51682 -17.2582,4.13477 -53.21279,5.39318 -64.53848,3.955 -11.32569,-1.43818 -22.11207,-0.17977 -54.111645,-0.71909 -31.999578,-0.53932 -43.684817,-7.19092 -57.167785,-2.33705 z"
       style="fill:#583815;fill-opacity:1;stroke:none;stroke-width:1px;stroke-linecap:butt;stroke-linejoin:miter;stroke-opacity:1" />
    <path
       inkscape:connector-curvature="0"
       id="path827"
       d="m 14.237288,135.50847 -2.033898,-3.30508 c 0,0 14.237288,3.05085 23.135593,-0.50847 8.898305,-3.55933 87.203387,-0.76272 87.203387,-0.76272 0,0 91.77966,4.57627 100.93221,-0.76271 1.27118,0.25424 5.33898,2.0339 5.33898,2.0339 0,0 -30.63559,5.33898 -58.09322,4.32203 -27.45763,-1.01695 -56.44068,-4.8305 -68.77119,-3.55932 -12.330506,1.27119 -70.932201,4.95762 -87.711862,2.54237 z"
       style="fill:#583815;fill-opacity:1;stroke:none;stroke-width:1px;stroke-linecap:butt;stroke-linejoin:miter;stroke-opacity:1" />
    <path
       inkscape:connector-curvature="0"
       id="path829"
       d="m 11.949153,110.59322 c 0,0 3.813559,5.59322 3.050847,11.69492 -0.762712,6.10169 86.18644,6.35593 99.66102,3.55932 13.47457,-2.79661 86.44068,-7.37288 110.08474,1.77966 0,0 -5.59322,-3.55932 4.57627,-13.98305 10.1695,-10.42373 -123.05084,8.64407 -134.999996,4.06779 -11.949153,-4.57627 -75.508474,-9.66101 -82.372881,-7.11864 z"
       style="fill:#583815;fill-opacity:1;stroke:none;stroke-width:1px;stroke-linecap:butt;stroke-linejoin:miter;stroke-opacity:1" />
  </g>
</svg>
